# xmcd CD database file
#
# Track frame offsets:
#	150
#	19950
#	33749
#	50884
#	67880
#	82243
#	96640
#	112202
#	133926
#	153927
#
# Disc length: 2294 seconds
#
# Revision: 2
# Processed by: cddbd v1.5.2PL0 Copyright (c) Steve Scherf et al.
# Submitted via: CDex 1.70beta3
#
DISCID=9908f40a
DTITLE=YAMAHA - feat.VY1
DYEAR=2010
DGENRE=Vocaloid
TTITLE0=otetsu feat.VY1 - 星屑ユートピア
TTITLE1=baker×Aether_Eru feat.VY1 - celluloid -P∴Rhythmatiq mix-
TTITLE2=オワタP feat.VY1 - パラジクロロベンゼン
TTITLE3=キャプテンミライ feat.VY1 - エンドレス -1983FMGROOVE-
TTITLE4=BanananaMiLK feat.VY1 - Drive!!
TTITLE5=wowaka feat.VY1 - ローリンガール
TTITLE6=http feat.VY1 - オリジナルシング
TTITLE7=KazuP feat.VY1 - Awakening!
TTITLE8=レントンP feat.VY1 - 染色共同体
TTITLE9=小林オニキス feat.VY1 - サイハテ (ver.VY1)
EXTD=YEAR: 2010
EXTT0=
EXTT1=
EXTT2=
EXTT3=
EXTT4=
EXTT5=
EXTT6=
EXTT7=
EXTT8=
EXTT9=
PLAYORDER=
